<svg width="10" height="9" viewBox="0 0 10 9" fill="none" xmlns="http://www.w3.org/2000/svg">
<path d="M0.117676 7.77576C0.117676 8.13611 0.35498 8.27673 0.614258 8.27673C0.763672 8.27673 0.891113 8.18884 1.05811 8.08777C1.5415 7.75818 2.13916 7.55603 2.75 7.56042C3.38281 7.56482 4.01123 7.79773 4.50342 8.27234C4.69678 8.44812 4.8374 8.50525 5 8.50525C5.1582 8.50525 5.30322 8.44812 5.49219 8.27234C5.98438 7.80212 6.61279 7.56482 7.25 7.56042C7.86084 7.55603 8.4541 7.75818 8.9375 8.08777C9.10449 8.18884 9.23193 8.27673 9.38574 8.27673C9.64062 8.27673 9.87793 8.13611 9.87793 7.77576V1.81238C9.87793 1.73767 9.87354 1.67615 9.8252 1.60144C9.43408 0.920288 8.44092 0.344604 7.23242 0.344604C6.27441 0.344604 5.44385 0.726929 5 1.26746C4.55615 0.726929 3.72119 0.344604 2.76758 0.344604C1.55469 0.344604 0.561523 0.920288 0.17041 1.60144C0.126465 1.67615 0.117676 1.73767 0.117676 1.81238V7.77576ZM0.825195 7.40222V1.91345C1.18115 1.39929 1.95459 1.05212 2.76758 1.05212C3.60254 1.05212 4.33203 1.40369 4.64404 1.93982V7.47693C4.1958 7.12097 3.49707 6.85291 2.76758 6.85291C2.00293 6.85291 1.29102 7.06824 0.825195 7.40222ZM5.35156 7.47693V1.93982C5.66357 1.40369 6.39746 1.05212 7.23242 1.05212C8.04102 1.05212 8.81445 1.39929 9.17041 1.91345V7.40222C8.70459 7.06824 7.99268 6.85291 7.23242 6.85291C6.49854 6.85291 5.7998 7.12097 5.35156 7.47693Z" fill="#343232"/>
</svg>
