<svg width="16" height="17" viewBox="0 0 16 17" fill="none" xmlns="http://www.w3.org/2000/svg">
<g clip-path="url(#clip0_193_1214)">
<path d="M4.33301 5.16663H11.6663" stroke="#85939B" stroke-width="1.33333" stroke-linecap="round" stroke-linejoin="round"/>
<path d="M4 13.8333V12.5C4 11.4391 4.42143 10.4217 5.17157 9.67157C5.92172 8.92143 6.93913 8.5 8 8.5C9.06087 8.5 10.0783 8.92143 10.8284 9.67157C11.5786 10.4217 12 11.4391 12 12.5V13.8333C12 14.0101 11.9298 14.1797 11.8047 14.3047C11.6797 14.4298 11.5101 14.5 11.3333 14.5H4.66667C4.48986 14.5 4.32029 14.4298 4.19526 14.3047C4.07024 14.1797 4 14.0101 4 13.8333Z" stroke="#85939B" stroke-width="1.33333" stroke-linecap="round" stroke-linejoin="round"/>
<path d="M4 3.16667V4.5C4 5.56087 4.42143 6.57828 5.17157 7.32843C5.92172 8.07857 6.93913 8.5 8 8.5C9.06087 8.5 10.0783 8.07857 10.8284 7.32843C11.5786 6.57828 12 5.56087 12 4.5V3.16667C12 2.98986 11.9298 2.82029 11.8047 2.69526C11.6797 2.57024 11.5101 2.5 11.3333 2.5H4.66667C4.48986 2.5 4.32029 2.57024 4.19526 2.69526C4.07024 2.82029 4 2.98986 4 3.16667V3.16667Z" stroke="#85939B" stroke-width="1.33333" stroke-linecap="round" stroke-linejoin="round"/>
</g>
<defs>
<clipPath id="clip0_193_1214">
<rect width="16" height="16" fill="white" transform="translate(0 0.5)"/>
</clipPath>
</defs>
</svg>
