<svg width="16" height="17" viewBox="0 0 16 17" fill="none" xmlns="http://www.w3.org/2000/svg">
<g clip-path="url(#clip0_193_1523)">
<path d="M12.6667 3.16663H3.33333C2.59695 3.16663 2 3.76358 2 4.49996C2 5.23634 2.59695 5.83329 3.33333 5.83329H12.6667C13.403 5.83329 14 5.23634 14 4.49996C14 3.76358 13.403 3.16663 12.6667 3.16663Z" stroke="#85939B" stroke-width="1.33333" stroke-linecap="round" stroke-linejoin="round"/>
<path d="M3.33301 5.83337V12.5C3.33301 12.8537 3.47348 13.1928 3.72353 13.4428C3.97358 13.6929 4.31272 13.8334 4.66634 13.8334H11.333C11.6866 13.8334 12.0258 13.6929 12.2758 13.4428C12.5259 13.1928 12.6663 12.8537 12.6663 12.5V5.83337" stroke="#85939B" stroke-width="1.33333" stroke-linecap="round" stroke-linejoin="round"/>
<path d="M6.66699 8.5H9.33366" stroke="#85939B" stroke-width="1.33333" stroke-linecap="round" stroke-linejoin="round"/>
</g>
<defs>
<clipPath id="clip0_193_1523">
<rect width="16" height="16" fill="white" transform="translate(0 0.5)"/>
</clipPath>
</defs>
</svg>
