<svg width="17" height="17" viewBox="0 0 17 17" fill="none" xmlns="http://www.w3.org/2000/svg">
<mask id="mask0_221_2681" style="mask-type:alpha" maskUnits="userSpaceOnUse" x="0" y="0" width="17" height="17">
<path d="M0.5 0.544969V16.853H16.482V0.542969H0.5V0.544969Z" fill="white"/>
</mask>
<g mask="url(#mask0_221_2681)">
<path fill-rule="evenodd" clip-rule="evenodd" d="M5.98997 0.990938C3.98402 1.69024 2.32774 3.14074 1.36997 5.03694C1.04207 5.68553 0.803242 6.37543 0.659974 7.08794C0.301353 8.87518 0.549827 10.731 1.36597 12.3609C1.89953 13.4173 2.65471 14.3461 3.57997 15.0839C4.45433 15.7805 5.46304 16.2891 6.54297 16.5779C7.90197 16.9419 9.34797 16.9339 10.716 16.6219C11.9603 16.3408 13.1109 15.7428 14.056 14.8859C15.043 13.9789 15.748 12.7859 16.121 11.5019C16.529 10.1039 16.581 8.60894 16.327 7.17194H8.65597V10.3529H13.1C13.0113 10.861 12.8211 11.346 12.5409 11.7789C12.2607 12.2119 11.8961 12.5839 11.469 12.8729C10.926 13.2323 10.3139 13.4741 9.67197 13.5829C9.03197 13.6929 8.36497 13.7059 7.72497 13.5789C7.07263 13.4452 6.45502 13.1779 5.91097 12.7939C5.03979 12.1787 4.38613 11.3031 4.04397 10.2929C3.69565 9.26395 3.69565 8.14893 4.04397 7.11994C4.28923 6.39699 4.69387 5.73841 5.22797 5.19294C5.88978 4.51216 6.73734 4.04126 7.66497 3.83894C8.4585 3.67086 9.28146 3.70387 10.059 3.93494C10.7178 4.13725 11.3197 4.49181 11.816 4.96994L13.316 3.46994C13.579 3.20294 13.855 2.94494 14.109 2.66794C13.3483 1.95984 12.4561 1.40776 11.483 1.04294C9.71227 0.397253 7.77359 0.378897 5.99097 0.990938" fill="white"/>
</g>
<mask id="mask1_221_2681" style="mask-type:alpha" maskUnits="userSpaceOnUse" x="1" y="0" width="14" height="8">
<path d="M14.109 0.543945H1.37V7.11395H14.11V0.543945H14.109Z" fill="white"/>
</mask>
<g mask="url(#mask1_221_2681)">
<path fill-rule="evenodd" clip-rule="evenodd" d="M5.99099 0.991002C7.77351 0.379855 9.71144 0.396792 11.483 1.039C12.456 1.399 13.346 1.959 14.109 2.665C13.855 2.941 13.579 3.2 13.316 3.467L11.816 4.967C11.3186 4.49036 10.717 4.13602 10.059 3.932C9.28192 3.69843 8.45842 3.66506 7.66499 3.835C6.74499 4.033 5.89 4.515 5.228 5.19C4.69338 5.73391 4.28862 6.39164 4.044 7.114C3.154 6.423 2.264 5.734 1.37 5.041C2.32636 3.14283 3.98296 1.69062 5.99 0.991002" fill="#EA4335"/>
</g>
<path fill-rule="evenodd" clip-rule="evenodd" d="M0.664976 7.08298C0.808976 6.37298 1.04498 5.68098 1.37498 5.03198C2.26498 5.72398 3.15498 6.41198 4.04898 7.10498C3.69818 8.13391 3.69818 9.25006 4.04898 10.279C3.15898 10.972 2.26898 11.664 1.37898 12.352C0.555853 10.7257 0.304339 8.86966 0.664976 7.08298Z" fill="#FBBC05"/>
<path fill-rule="evenodd" clip-rule="evenodd" d="M8.656 7.16699H16.327C16.5878 8.60725 16.5174 10.088 16.121 11.497C15.748 12.782 15.043 13.974 14.056 14.882L11.466 12.87C11.8931 12.5808 12.2575 12.2085 12.5376 11.7754C12.8176 11.3422 13.0075 10.8571 13.096 10.349H8.651C8.656 9.28899 8.656 8.22699 8.656 7.16699Z" fill="#4285F4"/>
<path fill-rule="evenodd" clip-rule="evenodd" d="M1.37 12.357C2.26 11.668 3.15 10.976 4.04 10.283C4.38332 11.293 5.03668 12.169 5.907 12.786C6.45176 13.1693 7.06957 13.4365 7.722 13.571C8.362 13.702 9.024 13.685 9.668 13.575C10.3103 13.4663 10.9227 13.2244 11.466 12.865L14.056 14.877C13.123 15.741 11.952 16.328 10.716 16.613C9.34799 16.924 7.902 16.933 6.543 16.569C5.46236 16.2819 4.4533 15.7732 3.58 15.075C2.65635 14.3385 1.90252 13.4114 1.37 12.357Z" fill="#34A853"/>
</svg>
