<svg width="8" height="9" viewBox="0 0 8 9" fill="none" xmlns="http://www.w3.org/2000/svg">
<path d="M0.0234375 4.31641C0.0234375 5.49219 0.363281 6.78906 0.9375 7.79688C1.02734 7.95312 1.1875 8.00391 1.35156 7.9375C1.52734 8.21875 1.84375 8.33203 2.21094 8.22656C2.66016 8.09766 2.87109 7.70703 2.73828 7.25781L2.17969 5.35156C2.05078 4.90625 1.66797 4.69531 1.21484 4.82422C1 4.88672 0.84375 5.00781 0.746094 5.16406C0.707031 4.87891 0.6875 4.59375 0.6875 4.31641C0.6875 2.14844 2.01172 0.703125 4 0.703125C5.98438 0.703125 7.3125 2.14844 7.3125 4.31641C7.3125 4.59375 7.29297 4.87891 7.25 5.16797C7.15625 5.00781 6.99609 4.88672 6.78125 4.82422C6.32812 4.69531 5.94922 4.90625 5.81641 5.35156L5.25781 7.25781C5.125 7.71094 5.33594 8.09766 5.78516 8.22656C6.15234 8.33203 6.46875 8.21875 6.64453 7.9375C6.80859 8.00391 6.97266 7.95312 7.05859 7.79688C7.63281 6.78906 7.97656 5.49219 7.97656 4.31641C7.97656 1.74609 6.39062 0.0390625 4 0.0390625C1.60547 0.0390625 0.0234375 1.74609 0.0234375 4.31641Z" fill="#343232"/>
</svg>
