<svg width="163" height="25" viewBox="0 0 163 25" fill="none" xmlns="http://www.w3.org/2000/svg">
<path d="M1.12598 5.88281C1.12598 4.39844 1.67285 3.10938 2.7666 2.01562C3.86035 0.921875 5.54004 0.375 7.80566 0.375C10.2275 0.375 12.0635 1 13.3135 2.25C14.4072 3.34375 14.9541 4.63281 14.9541 6.11719H12.2588C12.2588 5.17969 11.9463 4.39844 11.3213 3.77344C10.6182 3.07031 9.52441 2.71875 8.04004 2.71875C6.39941 2.71875 5.2666 3.03125 4.6416 3.65625C4.09473 4.20312 3.82129 4.82812 3.82129 5.53125C3.82129 6.23438 3.97754 6.74219 4.29004 7.05469C4.68066 7.44531 5.38379 7.83594 6.39941 8.22656C8.19629 9.00781 10.2275 9.90625 12.4932 10.9219C13.1182 11.1562 13.7041 11.5469 14.251 12.0938C15.1104 12.9531 15.54 13.9688 15.54 15.1406C15.54 16.7031 14.9932 18.0312 13.8994 19.125C12.7275 20.2969 10.8135 20.8828 8.15723 20.8828C5.5791 20.8828 3.58691 20.1797 2.18066 18.7734C1.16504 17.7578 0.657227 16.2734 0.657227 14.3203H3.35254C3.35254 15.7266 3.66504 16.7422 4.29004 17.3672C5.14941 18.2266 6.47754 18.6562 8.27441 18.6562C9.91504 18.6562 11.126 18.2656 11.9072 17.4844C12.5322 16.8594 12.8447 16.2344 12.8447 15.6094C12.8447 14.9062 12.6104 14.3203 12.1416 13.8516C11.751 13.4609 11.126 13.0703 10.2666 12.6797C9.48535 12.2891 8.46973 11.8203 7.21973 11.2734C5.81348 10.6484 4.68066 10.1406 3.82129 9.75C3.19629 9.51562 2.64941 9.16406 2.18066 8.69531C1.47754 7.99219 1.12598 7.05469 1.12598 5.88281ZM20.8135 24.9844H18.4697V7.52344H20.8135V9.04688C21.751 7.875 22.9619 7.28906 24.4463 7.28906C26.0869 7.28906 27.415 7.79688 28.4307 8.8125C29.6807 10.0625 30.3057 11.8203 30.3057 14.0859C30.3057 16.4297 29.6807 18.2266 28.4307 19.4766C27.415 20.4922 26.0869 21 24.4463 21C22.8057 21 21.5947 20.375 20.8135 19.125V24.9844ZM24.4463 9.39844C23.5088 9.39844 22.6885 9.75 21.9854 10.4531C21.2041 11.2344 20.8135 12.1719 20.8135 13.2656V14.9062C20.8135 16 21.2432 16.9766 22.1025 17.8359C22.8057 18.5391 23.5869 18.8906 24.4463 18.8906C25.2275 18.8906 25.8916 18.6172 26.4385 18.0703C27.2979 17.2109 27.7275 15.8828 27.7275 14.0859C27.7275 12.3672 27.3369 11.1172 26.5557 10.3359C25.9307 9.71094 25.2275 9.39844 24.4463 9.39844ZM33.2354 14.0859C33.2354 11.9766 33.8994 10.2578 35.2275 8.92969C36.3213 7.83594 37.7275 7.28906 39.4463 7.28906C41.0869 7.28906 42.4932 7.875 43.665 9.04688C44.7588 10.1406 45.3057 11.8203 45.3057 14.0859H35.8135C35.8135 15.7266 36.2041 16.9375 36.9854 17.7188C37.6885 18.4219 38.5869 18.7734 39.6807 18.7734C40.7744 18.7734 41.5557 18.5391 42.0244 18.0703C42.5713 17.5234 42.8447 16.8984 42.8447 16.1953H45.4229C45.1104 17.6016 44.6025 18.6562 43.8994 19.3594C42.8838 20.375 41.4775 20.8828 39.6807 20.8828C37.8057 20.8828 36.2822 20.2969 35.1104 19.125C33.8604 17.875 33.2354 16.1953 33.2354 14.0859ZM39.3291 9.28125C38.3916 9.28125 37.6104 9.59375 36.9854 10.2188C36.4385 10.7656 36.0869 11.4297 35.9307 12.2109H42.6104C42.6104 11.4297 42.2979 10.7266 41.6729 10.1016C41.126 9.55469 40.3447 9.28125 39.3291 9.28125ZM48.4697 11.3906C48.7041 10.2969 49.2119 9.35938 49.9932 8.57812C50.8525 7.71875 52.1025 7.28906 53.7432 7.28906C55.6963 7.28906 57.1025 7.71875 57.9619 8.57812C58.7432 9.35938 59.1338 10.2578 59.1338 11.2734V18.6562C59.1338 19.5156 59.4463 20.1797 60.0713 20.6484H57.2588C56.9463 20.3359 56.79 19.8281 56.79 19.125C55.6182 20.2969 54.1338 20.8828 52.3369 20.8828C50.8525 20.8828 49.7197 20.4922 48.9385 19.7109C48.2354 19.0078 47.8838 18.1875 47.8838 17.25C47.8838 16.1562 48.2354 15.2578 48.9385 14.5547C49.7197 13.7734 50.8135 13.2656 52.2197 13.0312C53.1572 12.875 53.9775 12.6797 54.6807 12.4453C55.6963 12.2109 56.3994 11.9766 56.79 11.7422C56.79 11.1172 56.5557 10.5703 56.0869 10.1016C55.6182 9.63281 54.9541 9.39844 54.0947 9.39844C53.001 9.39844 52.2197 9.63281 51.751 10.1016C51.4385 10.4141 51.2041 10.8438 51.0479 11.3906H48.4697ZM56.79 13.9688C56.3213 14.125 55.8916 14.2422 55.501 14.3203C54.1729 14.6328 53.1572 14.8672 52.4541 15.0234C51.8291 15.1797 51.3604 15.4141 51.0479 15.7266C50.6572 16.1172 50.4619 16.5469 50.4619 17.0156C50.4619 17.5625 50.6572 18.0312 51.0479 18.4219C51.2822 18.6562 51.79 18.7734 52.5713 18.7734C53.8994 18.7734 54.9932 18.3438 55.8525 17.4844C56.3994 16.9375 56.7119 16.5469 56.79 16.3125V13.9688ZM62.6494 0.609375H64.9932V13.2656L70.7354 7.52344H73.665L69.2119 11.9766L74.6025 20.6484H72.1416L67.6885 13.5L64.9932 16.1953V20.6484H62.6494V0.609375ZM76.9463 0.609375H89.8369V2.83594H79.6416V9.04688H89.1338V11.2734H79.6416V18.4219H90.4229V20.6484H76.9463V0.609375ZM93.5869 11.3906C93.8213 10.2969 94.3291 9.35938 95.1104 8.57812C95.9697 7.71875 97.2197 7.28906 98.8604 7.28906C100.813 7.28906 102.22 7.71875 103.079 8.57812C103.86 9.35938 104.251 10.2578 104.251 11.2734V18.6562C104.251 19.5156 104.563 20.1797 105.188 20.6484H102.376C102.063 20.3359 101.907 19.8281 101.907 19.125C100.735 20.2969 99.251 20.8828 97.4541 20.8828C95.9697 20.8828 94.8369 20.4922 94.0557 19.7109C93.3525 19.0078 93.001 18.1875 93.001 17.25C93.001 16.1562 93.3525 15.2578 94.0557 14.5547C94.8369 13.7734 95.9307 13.2656 97.3369 13.0312C98.2744 12.875 99.0947 12.6797 99.7979 12.4453C100.813 12.2109 101.517 11.9766 101.907 11.7422C101.907 11.1172 101.673 10.5703 101.204 10.1016C100.735 9.63281 100.071 9.39844 99.2119 9.39844C98.1182 9.39844 97.3369 9.63281 96.8682 10.1016C96.5557 10.4141 96.3213 10.8438 96.165 11.3906H93.5869ZM101.907 13.9688C101.438 14.125 101.009 14.2422 100.618 14.3203C99.29 14.6328 98.2744 14.8672 97.5713 15.0234C96.9463 15.1797 96.4775 15.4141 96.165 15.7266C95.7744 16.1172 95.5791 16.5469 95.5791 17.0156C95.5791 17.5625 95.7744 18.0312 96.165 18.4219C96.3994 18.6562 96.9072 18.7734 97.6885 18.7734C99.0166 18.7734 100.11 18.3438 100.97 17.4844C101.517 16.9375 101.829 16.5469 101.907 16.3125V13.9688ZM108.001 11.2734C108.001 10.2578 108.353 9.39844 109.056 8.69531C109.993 7.75781 111.321 7.28906 113.04 7.28906C114.915 7.28906 116.282 7.71875 117.142 8.57812C117.923 9.35938 118.313 10.2188 118.313 11.1562H115.97C115.892 10.6094 115.735 10.2188 115.501 9.98438C115.032 9.51562 114.173 9.28125 112.923 9.28125C112.142 9.28125 111.517 9.51562 111.048 9.98438C110.657 10.375 110.462 10.8047 110.462 11.2734C110.462 11.5859 110.579 11.8594 110.813 12.0938C111.126 12.4062 112.103 12.7578 113.743 13.1484C114.759 13.3828 115.618 13.6172 116.321 13.8516C116.946 14.0859 117.415 14.3594 117.728 14.6719C118.353 15.2969 118.665 16.0391 118.665 16.8984C118.665 17.8359 118.274 18.6953 117.493 19.4766C116.556 20.4141 115.11 20.8828 113.157 20.8828C111.204 20.8828 109.759 20.4141 108.821 19.4766C108.04 18.6953 107.649 17.7188 107.649 16.5469H109.993C110.071 17.25 110.267 17.7578 110.579 18.0703C111.126 18.6172 111.946 18.8906 113.04 18.8906C114.368 18.8906 115.267 18.6562 115.735 18.1875C116.048 17.875 116.204 17.4844 116.204 17.0156C116.204 16.7031 116.009 16.3516 115.618 15.9609C115.306 15.6484 114.798 15.4141 114.095 15.2578C112.688 14.9453 111.634 14.6719 110.931 14.4375C110.071 14.2031 109.446 13.8906 109.056 13.5C108.353 12.7969 108.001 12.0547 108.001 11.2734ZM120.306 7.40625H122.884L127.103 17.8359L131.321 7.40625H133.899L128.04 21.4688C127.571 22.6406 127.103 23.4609 126.634 23.9297C126.009 24.5547 125.228 24.8672 124.29 24.8672C123.196 24.8672 122.493 24.7109 122.181 24.3984V22.1719C122.806 22.4844 123.47 22.6406 124.173 22.6406C124.563 22.6406 124.915 22.4844 125.228 22.1719C125.54 21.8594 125.774 21.4297 125.931 20.8828L120.306 7.40625ZM136.378 21V18.42H138.928V21H136.378ZM143.421 21V5.97H145.251V21H143.421ZM143.121 2.28V-1.43051e-06H145.581V2.28H143.121ZM150.247 21V9.33C150.247 8.79 150.227 8.24 150.187 7.68C150.147 7.12 150.087 6.55 150.007 5.97H151.807L152.077 9.42H151.717C152.157 8.22 152.867 7.3 153.847 6.66C154.827 6.02 155.967 5.7 157.267 5.7C159.047 5.7 160.387 6.17 161.287 7.11C162.207 8.05 162.667 9.52 162.667 11.52V21H160.837V11.67C160.837 10.13 160.527 9.02 159.907 8.34C159.287 7.64 158.327 7.29 157.027 7.29C155.507 7.29 154.297 7.75 153.397 8.67C152.517 9.59 152.077 10.83 152.077 12.39V21H150.247Z" fill="#252525"/>
</svg>
