<svg width="40" height="40" viewBox="0 0 40 40" fill="none" xmlns="http://www.w3.org/2000/svg">
<path d="M17.4892 12.124C17.2802 12.124 17.0794 12.2044 16.9267 12.3571L10.1044 19.0669C9.95167 19.2115 9.86328 19.4205 9.86328 19.6374V33.483L31.2222 12.124H17.4892Z" fill="#E7E7E7"/>
<path d="M25.2997 27.5607L18.2363 34.6241H31.5595C31.7845 34.6241 31.9774 34.5357 32.1301 34.3911C32.2747 34.2384 32.3631 34.0455 32.3631 33.8205V20.4973L25.2997 27.5607Z" fill="#E7E7E7"/>
<path d="M32.3633 12.9276V20.4972L18.2365 34.624H10.6669C10.2249 34.624 9.86328 34.2624 9.86328 33.8205V33.483L31.2222 12.124H31.5597C32.0017 12.124 32.3633 12.4856 32.3633 12.9276Z" fill="#2197F3"/>
<path d="M32.1301 34.3909C31.9774 34.5355 31.7845 34.6239 31.5595 34.6239H18.2363L25.2997 27.5605L32.1301 34.3909Z" fill="#FEF6F5"/>
<path d="M32.3633 12.9276V20.4972L18.2365 34.624H10.6669C10.2249 34.624 9.86328 34.2624 9.86328 33.8205V33.483L31.2222 12.124H31.5597C32.0017 12.124 32.3633 12.4856 32.3633 12.9276Z" fill="#F2F3F4"/>
<path d="M14.4484 4.625C10.0654 4.625 6.5 8.13367 6.5 12.4485C6.5 16.5136 12.9269 22.8951 13.6536 23.6104C13.8807 23.8262 14.1646 23.9284 14.4484 23.9284C14.7323 23.9284 15.0162 23.8262 15.2433 23.6104C15.97 22.8951 22.3969 16.5136 22.3969 12.4485C22.3969 8.13367 18.8314 4.625 14.4484 4.625Z" fill="#E64B32"/>
<path d="M16.7197 12.4485C16.7197 13.7089 15.6978 14.7195 14.4487 14.7195C13.1997 14.7195 12.1777 13.7089 12.1777 12.4485C12.1777 11.1994 13.1997 10.1775 14.4487 10.1775C15.6978 10.1775 16.7197 11.1994 16.7197 12.4485Z" fill="white"/>
</svg>
