<svg width="217" height="34" viewBox="0 0 217 34" fill="none" xmlns="http://www.w3.org/2000/svg">
<path d="M1.16797 7.84375C1.16797 5.86458 1.89714 4.14583 3.35547 2.6875C4.8138 1.22917 7.05339 0.5 10.0742 0.5C13.3034 0.5 15.7513 1.33333 17.418 3C18.8763 4.45833 19.6055 6.17708 19.6055 8.15625H16.0117C16.0117 6.90625 15.5951 5.86458 14.7617 5.03125C13.8242 4.09375 12.3659 3.625 10.3867 3.625C8.19922 3.625 6.6888 4.04167 5.85547 4.875C5.1263 5.60417 4.76172 6.4375 4.76172 7.375C4.76172 8.3125 4.97005 8.98958 5.38672 9.40625C5.90755 9.92708 6.84505 10.4479 8.19922 10.9688C10.5951 12.0104 13.3034 13.2083 16.3242 14.5625C17.1576 14.875 17.9388 15.3958 18.668 16.125C19.8138 17.2708 20.3867 18.625 20.3867 20.1875C20.3867 22.2708 19.6576 24.0417 18.1992 25.5C16.6367 27.0625 14.0846 27.8438 10.543 27.8438C7.10547 27.8438 4.44922 26.9062 2.57422 25.0312C1.22005 23.6771 0.542969 21.6979 0.542969 19.0938H4.13672C4.13672 20.9688 4.55339 22.3229 5.38672 23.1562C6.53255 24.3021 8.30339 24.875 10.6992 24.875C12.8867 24.875 14.5013 24.3542 15.543 23.3125C16.3763 22.4792 16.793 21.6458 16.793 20.8125C16.793 19.875 16.4805 19.0938 15.8555 18.4688C15.3346 17.9479 14.5013 17.4271 13.3555 16.9062C12.3138 16.3854 10.9596 15.7604 9.29297 15.0312C7.41797 14.1979 5.90755 13.5208 4.76172 13C3.92839 12.6875 3.19922 12.2188 2.57422 11.5938C1.63672 10.6562 1.16797 9.40625 1.16797 7.84375ZM27.418 33.3125H24.293V10.0312H27.418V12.0625C28.668 10.5 30.2826 9.71875 32.2617 9.71875C34.4492 9.71875 36.2201 10.3958 37.5742 11.75C39.2409 13.4167 40.0742 15.7604 40.0742 18.7812C40.0742 21.9062 39.2409 24.3021 37.5742 25.9688C36.2201 27.3229 34.4492 28 32.2617 28C30.0742 28 28.4596 27.1667 27.418 25.5V33.3125ZM32.2617 12.5312C31.0117 12.5312 29.918 13 28.9805 13.9375C27.9388 14.9792 27.418 16.2292 27.418 17.6875V19.875C27.418 21.3333 27.9909 22.6354 29.1367 23.7812C30.0742 24.7188 31.1159 25.1875 32.2617 25.1875C33.3034 25.1875 34.1888 24.8229 34.918 24.0938C36.0638 22.9479 36.6367 21.1771 36.6367 18.7812C36.6367 16.4896 36.1159 14.8229 35.0742 13.7812C34.2409 12.9479 33.3034 12.5312 32.2617 12.5312ZM43.9805 18.7812C43.9805 15.9688 44.8659 13.6771 46.6367 11.9062C48.0951 10.4479 49.9701 9.71875 52.2617 9.71875C54.4492 9.71875 56.3242 10.5 57.8867 12.0625C59.3451 13.5208 60.0742 15.7604 60.0742 18.7812H47.418C47.418 20.9688 47.9388 22.5833 48.9805 23.625C49.918 24.5625 51.1159 25.0312 52.5742 25.0312C54.0326 25.0312 55.0742 24.7188 55.6992 24.0938C56.4284 23.3646 56.793 22.5312 56.793 21.5938H60.2305C59.8138 23.4688 59.1367 24.875 58.1992 25.8125C56.8451 27.1667 54.9701 27.8438 52.5742 27.8438C50.0742 27.8438 48.043 27.0625 46.4805 25.5C44.8138 23.8333 43.9805 21.5938 43.9805 18.7812ZM52.1055 12.375C50.8555 12.375 49.8138 12.7917 48.9805 13.625C48.2513 14.3542 47.7826 15.2396 47.5742 16.2812H56.4805C56.4805 15.2396 56.0638 14.3021 55.2305 13.4688C54.5013 12.7396 53.4596 12.375 52.1055 12.375ZM64.293 15.1875C64.6055 13.7292 65.2826 12.4792 66.3242 11.4375C67.4701 10.2917 69.1367 9.71875 71.3242 9.71875C73.9284 9.71875 75.8034 10.2917 76.9492 11.4375C77.9909 12.4792 78.5117 13.6771 78.5117 15.0312V24.875C78.5117 26.0208 78.9284 26.9062 79.7617 27.5312H76.0117C75.5951 27.1146 75.3867 26.4375 75.3867 25.5C73.8242 27.0625 71.8451 27.8438 69.4492 27.8438C67.4701 27.8438 65.9596 27.3229 64.918 26.2812C63.9805 25.3438 63.5117 24.25 63.5117 23C63.5117 21.5417 63.9805 20.3438 64.918 19.4062C65.9596 18.3646 67.418 17.6875 69.293 17.375C70.543 17.1667 71.6367 16.9062 72.5742 16.5938C73.9284 16.2812 74.8659 15.9688 75.3867 15.6562C75.3867 14.8229 75.0742 14.0938 74.4492 13.4688C73.8242 12.8438 72.9388 12.5312 71.793 12.5312C70.3346 12.5312 69.293 12.8438 68.668 13.4688C68.2513 13.8854 67.9388 14.4583 67.7305 15.1875H64.293ZM75.3867 18.625C74.7617 18.8333 74.1888 18.9896 73.668 19.0938C71.8971 19.5104 70.543 19.8229 69.6055 20.0312C68.7721 20.2396 68.1471 20.5521 67.7305 20.9688C67.2096 21.4896 66.9492 22.0625 66.9492 22.6875C66.9492 23.4167 67.2096 24.0417 67.7305 24.5625C68.043 24.875 68.7201 25.0312 69.7617 25.0312C71.5326 25.0312 72.9909 24.4583 74.1367 23.3125C74.8659 22.5833 75.2826 22.0625 75.3867 21.75V18.625ZM83.1992 0.8125H86.3242V17.6875L93.9805 10.0312H97.8867L91.9492 15.9688L99.1367 27.5312H95.8555L89.918 18L86.3242 21.5938V27.5312H83.1992V0.8125ZM102.262 0.8125H119.449V3.78125H105.855V12.0625H118.512V15.0312H105.855V24.5625H120.23V27.5312H102.262V0.8125ZM124.449 15.1875C124.762 13.7292 125.439 12.4792 126.48 11.4375C127.626 10.2917 129.293 9.71875 131.48 9.71875C134.085 9.71875 135.96 10.2917 137.105 11.4375C138.147 12.4792 138.668 13.6771 138.668 15.0312V24.875C138.668 26.0208 139.085 26.9062 139.918 27.5312H136.168C135.751 27.1146 135.543 26.4375 135.543 25.5C133.98 27.0625 132.001 27.8438 129.605 27.8438C127.626 27.8438 126.116 27.3229 125.074 26.2812C124.137 25.3438 123.668 24.25 123.668 23C123.668 21.5417 124.137 20.3438 125.074 19.4062C126.116 18.3646 127.574 17.6875 129.449 17.375C130.699 17.1667 131.793 16.9062 132.73 16.5938C134.085 16.2812 135.022 15.9688 135.543 15.6562C135.543 14.8229 135.23 14.0938 134.605 13.4688C133.98 12.8438 133.095 12.5312 131.949 12.5312C130.491 12.5312 129.449 12.8438 128.824 13.4688C128.408 13.8854 128.095 14.4583 127.887 15.1875H124.449ZM135.543 18.625C134.918 18.8333 134.345 18.9896 133.824 19.0938C132.053 19.5104 130.699 19.8229 129.762 20.0312C128.928 20.2396 128.303 20.5521 127.887 20.9688C127.366 21.4896 127.105 22.0625 127.105 22.6875C127.105 23.4167 127.366 24.0417 127.887 24.5625C128.199 24.875 128.876 25.0312 129.918 25.0312C131.689 25.0312 133.147 24.4583 134.293 23.3125C135.022 22.5833 135.439 22.0625 135.543 21.75V18.625ZM143.668 15.0312C143.668 13.6771 144.137 12.5312 145.074 11.5938C146.324 10.3438 148.095 9.71875 150.387 9.71875C152.887 9.71875 154.71 10.2917 155.855 11.4375C156.897 12.4792 157.418 13.625 157.418 14.875H154.293C154.189 14.1458 153.98 13.625 153.668 13.3125C153.043 12.6875 151.897 12.375 150.23 12.375C149.189 12.375 148.355 12.6875 147.73 13.3125C147.21 13.8333 146.949 14.4062 146.949 15.0312C146.949 15.4479 147.105 15.8125 147.418 16.125C147.835 16.5417 149.137 17.0104 151.324 17.5312C152.678 17.8438 153.824 18.1562 154.762 18.4688C155.595 18.7812 156.22 19.1458 156.637 19.5625C157.47 20.3958 157.887 21.3854 157.887 22.5312C157.887 23.7812 157.366 24.9271 156.324 25.9688C155.074 27.2188 153.147 27.8438 150.543 27.8438C147.939 27.8438 146.012 27.2188 144.762 25.9688C143.72 24.9271 143.199 23.625 143.199 22.0625H146.324C146.428 23 146.689 23.6771 147.105 24.0938C147.835 24.8229 148.928 25.1875 150.387 25.1875C152.158 25.1875 153.355 24.875 153.98 24.25C154.397 23.8333 154.605 23.3125 154.605 22.6875C154.605 22.2708 154.345 21.8021 153.824 21.2812C153.408 20.8646 152.73 20.5521 151.793 20.3438C149.918 19.9271 148.512 19.5625 147.574 19.25C146.428 18.9375 145.595 18.5208 145.074 18C144.137 17.0625 143.668 16.0729 143.668 15.0312ZM160.074 9.875H163.512L169.137 23.7812L174.762 9.875H178.199L170.387 28.625C169.762 30.1875 169.137 31.2812 168.512 31.9062C167.678 32.7396 166.637 33.1562 165.387 33.1562C163.928 33.1562 162.991 32.9479 162.574 32.5312V29.5625C163.408 29.9792 164.293 30.1875 165.23 30.1875C165.751 30.1875 166.22 29.9792 166.637 29.5625C167.053 29.1458 167.366 28.5729 167.574 27.8438L160.074 9.875Z" fill="#2B45CC"/>
<path d="M181.504 28V24.56H184.904V28H181.504ZM190.894 28V7.96H193.334V28H190.894ZM190.494 3.04V-1.90735e-06H193.774V3.04H190.494ZM199.996 28V12.44C199.996 11.72 199.969 10.9867 199.916 10.24C199.862 9.49333 199.782 8.73333 199.676 7.96H202.076L202.436 12.56H201.956C202.542 10.96 203.489 9.73333 204.796 8.88C206.102 8.02667 207.622 7.6 209.356 7.6C211.729 7.6 213.516 8.22666 214.716 9.48C215.942 10.7333 216.556 12.6933 216.556 15.36V28H214.116V15.56C214.116 13.5067 213.702 12.0267 212.876 11.12C212.049 10.1867 210.769 9.72 209.036 9.72C207.009 9.72 205.396 10.3333 204.196 11.56C203.022 12.7867 202.436 14.44 202.436 16.52V28H199.996Z" fill="#252525"/>
</svg>
