<svg width="19" height="20" viewBox="0 0 19 20" fill="none" xmlns="http://www.w3.org/2000/svg">
<path d="M9.5 19.7646C14.6768 19.7646 18.9629 15.4692 18.9629 10.3018C18.9629 5.125 14.6675 0.838867 9.49072 0.838867C4.32324 0.838867 0.0371094 5.125 0.0371094 10.3018C0.0371094 15.4692 4.33252 19.7646 9.5 19.7646ZM9.5 18.1875C5.12109 18.1875 1.62354 14.6807 1.62354 10.3018C1.62354 5.92285 5.11182 2.41602 9.49072 2.41602C13.8696 2.41602 17.3765 5.92285 17.3857 10.3018C17.395 14.6807 13.8789 18.1875 9.5 18.1875ZM4.64795 11.3037H9.49072C9.85254 11.3037 10.1401 11.0254 10.1401 10.6543V4.40137C10.1401 4.03955 9.85254 3.76123 9.49072 3.76123C9.12891 3.76123 8.85059 4.03955 8.85059 4.40137V10.0142H4.64795C4.27686 10.0142 3.99854 10.2925 3.99854 10.6543C3.99854 11.0254 4.27686 11.3037 4.64795 11.3037Z" fill="#0D2063"/>
</svg>
