<svg width="16" height="16" viewBox="0 0 16 16" fill="none" xmlns="http://www.w3.org/2000/svg">
<path d="M7.29605 3.79742C7.44075 3.01683 8.55925 3.01683 8.70395 3.79743C8.80746 4.35581 9.48875 4.57718 9.9007 4.18627C10.4766 3.63981 11.3815 4.29725 11.0397 5.01382C10.7952 5.5264 11.2163 6.10594 11.7794 6.03184C12.5665 5.92824 12.9121 6.99199 12.2144 7.37083C11.7153 7.64182 11.7153 8.35818 12.2144 8.62917C12.9121 9.00801 12.5665 10.0718 11.7794 9.96816C11.2163 9.89406 10.7952 10.4736 11.0397 10.9862C11.3815 11.7028 10.4766 12.3602 9.9007 11.8137C9.48875 11.4228 8.80746 11.6442 8.70395 12.2026C8.55925 12.9832 7.44075 12.9832 7.29605 12.2026C7.19254 11.6442 6.51125 11.4228 6.0993 11.8137C5.5234 12.3602 4.61852 11.7028 4.96028 10.9862C5.20475 10.4736 4.78369 9.89406 4.22065 9.96816C3.43354 10.0718 3.0879 9.00801 3.78558 8.62917C4.28465 8.35818 4.28465 7.64182 3.78558 7.37083C3.0879 6.99199 3.43354 5.92824 4.22065 6.03184C4.78369 6.10594 5.20475 5.5264 4.96028 5.01382C4.61853 4.29725 5.5234 3.63981 6.0993 4.18627C6.51125 4.57718 7.19254 4.35581 7.29605 3.79742Z" fill="#4AC76D"/>
<g clip-path="url(#clip0_141_4892)">
<path d="M9.77723 6.66675L7.33279 9.11119L6.22168 8.00008" stroke="white" stroke-width="0.7" stroke-linecap="round" stroke-linejoin="round"/>
</g>
<defs>
<clipPath id="clip0_141_4892">
<rect width="5.33333" height="5.33333" fill="white" transform="translate(5.33301 5.33337)"/>
</clipPath>
</defs>
</svg>
